<svg width="24" height="24" viewBox="0 0 24 24" fill="none" xmlns="http://www.w3.org/2000/svg">
<path d="M10.9527 16.7582C11.0856 16.8909 11.2658 16.9656 11.4538 16.9656C11.6417 16.9656 11.8219 16.8911 11.9548 16.7582L14.4848 14.2282C14.7616 13.9513 14.7616 13.5027 14.4848 13.2259C14.2081 12.9492 13.7593 12.9492 13.4827 13.2259L11.4538 15.2547L10.5288 14.3296C10.2519 14.053 9.80333 14.053 9.52647 14.3296C9.2498 14.6063 9.2498 15.0551 9.52647 15.332L10.9527 16.7582Z" fill="#4E2E8A"/>
<path d="M12.0056 20.6177C15.1076 20.6177 17.6312 18.0939 17.6312 14.9919C17.6312 11.89 15.1076 9.36639 12.0056 9.36639C8.90344 9.36639 6.37988 11.89 6.37988 14.9919C6.37988 18.0939 8.90363 20.6177 12.0056 20.6177ZM12.0056 10.7836C14.3261 10.7836 16.2139 12.6714 16.2139 14.9919C16.2139 17.3124 14.3261 19.2004 12.0056 19.2004C9.68512 19.2004 7.79712 17.3124 7.79712 14.9919C7.79712 12.6714 9.68512 10.7836 12.0056 10.7836Z" fill="#4E2E8A"/>
<path d="M21.438 1.50897H20.1454V0.708618C20.1454 0.317322 19.8281 0 19.4368 0C19.0455 0 18.7282 0.317322 18.7282 0.708618V1.50897H17.3357V0.708618C17.3357 0.317322 17.0184 0 16.6269 0C16.2356 0 15.9183 0.317322 15.9183 0.708618V1.50897H8.09308V0.708618C8.09308 0.317322 7.77576 0 7.38428 0C6.99298 0 6.67566 0.317322 6.67566 0.708618V1.50897H5.28314V0.708618C5.28314 0.317322 4.96582 0 4.57434 0C4.18304 0 3.86572 0.317322 3.86572 0.708618V1.50897H2.573C1.30939 1.50897 0.28125 2.53711 0.28125 3.8009V21.7083C0.28125 22.9719 1.30939 24 2.573 24H21.438C22.7018 24 23.7297 22.9719 23.7297 21.7083V3.8009C23.7297 2.53711 22.7016 1.50897 21.438 1.50897ZM22.3123 21.7083C22.3123 22.1904 21.9201 22.5828 21.438 22.5828H2.573C2.09088 22.5828 1.69849 22.1904 1.69849 21.7083V7.40149H22.3123V21.7083ZM1.69849 3.8009C1.69849 3.3186 2.09088 2.92639 2.573 2.92639H3.86572V3.72675C3.86572 4.11804 4.18304 4.43536 4.57452 4.43536C4.96582 4.43536 5.28314 4.11804 5.28314 3.72675V2.92639H6.67566V3.72675C6.67566 4.11804 6.99298 4.43536 7.38446 4.43536C7.77576 4.43536 8.09308 4.11804 8.09308 3.72675V2.92639H15.9183V3.72675C15.9183 4.11804 16.2356 4.43536 16.6271 4.43536C17.0184 4.43536 17.3357 4.11804 17.3357 3.72675V2.92639H18.7282V3.72675C18.7282 4.11804 19.0455 4.43536 19.4368 4.43536C19.8283 4.43536 20.1456 4.11804 20.1456 3.72675V2.92639H21.438C21.9201 2.92639 22.3125 3.3186 22.3125 3.8009V5.98407H1.69849V3.8009Z" fill="#4E2E8A"/>
</svg>
