<svg width="24" height="24" viewBox="0 0 24 24" fill="none" xmlns="http://www.w3.org/2000/svg">
<path d="M20.1147 8.43847C20.0087 4.05416 16.4093 0.520203 12 0.520203C7.59066 0.520203 3.99131 4.05416 3.88533 8.43847C1.55672 9.86689 0 12.4363 0 15.3626C0 16.6443 0.290625 17.8711 0.863812 19.0091C0.951187 19.1825 1.16259 19.2522 1.33594 19.1649C1.50933 19.0776 1.57912 18.8661 1.49175 18.6928C0.968484 17.6539 0.703125 16.5334 0.703125 15.3626C0.703125 12.8371 1.97269 10.603 3.90675 9.26366C4.11098 11.9278 5.60719 14.2359 7.76813 15.5615C7.83323 18.256 9.21806 20.629 11.2993 22.0581C10.3345 22.5185 9.25547 22.7766 8.1172 22.7766C5.77444 22.7766 3.61856 21.7037 2.20233 19.8328C2.08514 19.678 1.86469 19.6476 1.70981 19.7647C1.55503 19.8819 1.52452 20.1024 1.6417 20.2572C2.38289 21.2363 3.35161 22.0472 4.44309 22.6023C5.58797 23.1846 6.82406 23.4798 8.11716 23.4798C9.52275 23.4798 10.8459 23.1205 12 22.4892C13.154 23.1205 14.4772 23.4798 15.8827 23.4798C20.3586 23.4798 24 19.8384 24 15.3626C24 12.4363 22.4433 9.86694 20.1147 8.43847ZM16.2104 14.7363C16.0174 12.2192 14.6711 10.0202 12.7006 8.66703C13.6654 8.20668 14.7445 7.94853 15.8827 7.94853C17.1592 7.94853 18.3613 8.27277 19.411 8.84319C19.3442 11.2839 18.0918 13.4335 16.2104 14.7363ZM15.5282 15.1568C14.4785 15.7272 13.2764 16.0514 12 16.0514C10.7236 16.0514 9.52148 15.7272 8.47172 15.1568C8.54241 12.5769 9.93755 10.3223 12 9.04921C14.0625 10.3223 15.4575 12.5769 15.5282 15.1568ZM12 1.22333C15.888 1.22333 19.0864 4.23177 19.3902 8.04303C18.328 7.532 17.1383 7.24541 15.8828 7.24541C14.4772 7.24541 13.1541 7.60471 12 8.23597C10.8459 7.60466 9.52275 7.24541 8.1172 7.24541C6.86175 7.24541 5.67202 7.532 4.60983 8.04303C4.91353 4.23177 8.11195 1.22333 12 1.22333ZM4.58892 8.84319C5.63869 8.27277 6.8408 7.94853 8.1172 7.94853C9.25552 7.94853 10.3346 8.20668 11.2994 8.66703C9.32892 10.0202 7.98258 12.2192 7.78959 14.7363C5.90822 13.4335 4.65577 11.2839 4.58892 8.84319ZM8.49262 15.9569C9.55481 16.468 10.7446 16.7546 12 16.7546C13.2555 16.7546 14.4452 16.468 15.5074 15.9569C15.3148 18.3736 13.9582 20.4673 12 21.676C10.0417 20.4673 8.68519 18.3736 8.49262 15.9569ZM15.8828 22.7766C14.7445 22.7766 13.6654 22.5185 12.7006 22.0581C14.7818 20.629 16.1667 18.256 16.2318 15.5615C18.3928 14.2359 19.889 11.9278 20.0932 9.26366C22.0273 10.603 23.2969 12.8372 23.2969 15.3626C23.2969 19.4507 19.9709 22.7766 15.8828 22.7766Z" fill="white"/>
</svg>
