<svg width="24" height="24" viewBox="0 0 24 24" fill="none" xmlns="http://www.w3.org/2000/svg">
<path d="M23.9238 15.2399L23.6942 14.4584C23.6213 14.2101 23.3608 14.0676 23.1124 14.1408L22.07 14.4471L15.8328 3.74139H17.7168C17.9757 3.74139 18.1856 3.53153 18.1856 3.27264V3.00086C18.1856 1.38958 16.8747 0.0786743 15.2634 0.0786743H8.70784C7.09656 0.0786743 5.78566 1.38953 5.78566 3.00086V3.27264C5.78566 3.53153 5.99556 3.74139 6.25441 3.74139H8.16705L1.92996 14.4471L0.887551 14.1408C0.639348 14.0678 0.378677 14.2101 0.305692 14.4584L0.0760985 15.2399C-0.214854 16.2303 0.354208 17.2728 1.34458 17.5638C1.51938 17.6152 1.69764 17.6406 1.87488 17.6406C2.18411 17.6406 2.49025 17.5632 2.76921 17.4109C3.20814 17.1714 3.5275 16.7752 3.66846 16.2954L3.89805 15.5139C3.93306 15.3947 3.91928 15.2663 3.85975 15.1572C3.80022 15.0481 3.69972 14.9671 3.58042 14.932L2.85644 14.7193L8.04611 5.81153L6.65894 13.4643L5.87833 13.3453C5.75547 13.3266 5.63008 13.3575 5.52995 13.4312C5.42978 13.5048 5.36303 13.6152 5.34433 13.7381L5.22944 14.4925C5.15772 14.9634 5.27364 15.434 5.55592 15.8178C5.83816 16.2015 6.253 16.4523 6.72391 16.524C6.81489 16.5379 6.90588 16.5447 6.99625 16.5447C7.37345 16.5447 7.73964 16.4253 8.0492 16.1975C8.43292 15.9153 8.68375 15.5005 8.75542 15.0296L8.87031 14.2752C8.90931 14.0193 8.73344 13.7802 8.4775 13.7412L7.58613 13.6054L9.37422 3.74139H9.82558L10.0593 13.2064C10.0593 13.2066 10.0593 13.2067 10.0593 13.2068L10.0929 14.5664L10.2146 19.4961H9.42887C8.51003 19.4961 7.76256 20.2435 7.76256 21.1623V21.2565H5.99936C5.16733 21.2565 4.49041 21.9334 4.49041 22.7655V22.9837H2.83933C2.58049 22.9837 2.37058 23.1935 2.37058 23.4524C2.37058 23.7113 2.58049 23.9212 2.83933 23.9212H4.95911H19.0122H21.132C21.3909 23.9212 21.6008 23.7113 21.6008 23.4524C21.6008 23.1935 21.3909 22.9837 21.132 22.9837H19.481V22.7655C19.481 21.9334 18.8041 21.2565 17.972 21.2565H16.2374V21.1623C16.2374 20.2435 15.49 19.4961 14.5711 19.4961H13.7568L14.1459 3.74139H14.6258L16.4139 13.6054L15.5225 13.7412C15.2666 13.7802 15.0907 14.0193 15.1297 14.2752L15.2446 15.0296C15.3163 15.5005 15.5672 15.9153 15.9508 16.1975C16.2604 16.4253 16.6265 16.5447 17.0038 16.5447C17.0942 16.5447 17.1851 16.5379 17.2761 16.524C17.747 16.4523 18.1619 16.2015 18.4441 15.8178C18.7263 15.434 18.8423 14.9634 18.7706 14.4925L18.6557 13.7381C18.637 13.6152 18.5702 13.5048 18.4701 13.4312C18.3699 13.3575 18.2445 13.3266 18.1217 13.3453L17.3411 13.4643L15.9539 5.81153L21.1436 14.7193L20.4196 14.932C20.3003 14.9671 20.1999 15.0481 20.1403 15.1572C20.0807 15.2663 20.067 15.3946 20.102 15.5139L20.3316 16.2954C20.4725 16.7751 20.7918 17.1713 21.2308 17.4109C21.5098 17.5632 21.8159 17.6406 22.1251 17.6406C22.3024 17.6406 22.4806 17.6152 22.6554 17.5638H22.6554C23.6457 17.2729 24.2148 16.2304 23.9238 15.2399ZM2.86643 15.6993L2.76893 16.0311C2.69857 16.2706 2.53919 16.4684 2.32005 16.588C2.10091 16.7076 1.84835 16.7347 1.60886 16.6644C1.60882 16.6644 1.60882 16.6644 1.60882 16.6644C1.11443 16.5191 0.830364 15.9987 0.975582 15.5043L1.07304 15.1725L1.906 15.4172C1.90633 15.4174 1.90661 15.4176 1.90694 15.4178C1.97435 15.4571 2.04752 15.4767 2.12036 15.4802L2.86643 15.6993ZM7.87291 14.5975L7.82861 14.8884C7.79458 15.1117 7.67561 15.3085 7.49364 15.4423C7.31167 15.5762 7.08836 15.6311 6.86509 15.5972C6.64169 15.5632 6.445 15.4443 6.31113 15.2622C6.17725 15.0802 6.12227 14.857 6.15625 14.6336L6.20055 14.3427L7.87291 14.5975ZM14.5711 20.4336C14.9729 20.4336 15.2999 20.7606 15.2999 21.1624V21.2565H15.2031C14.9443 21.2565 14.7344 21.4664 14.7344 21.7253C14.7344 21.772 14.7414 21.8169 14.7541 21.8595C14.8119 22.0529 14.9909 22.194 15.2031 22.194H16.2374H17.972C18.2871 22.194 18.5435 22.4504 18.5435 22.7655V22.9837H5.42781V22.7655C5.42781 22.4504 5.68417 22.194 5.99927 22.194H7.76247H11.453C11.6652 22.194 11.8442 22.0529 11.902 21.8595C11.9147 21.817 11.9217 21.772 11.9217 21.7253C11.9217 21.4664 11.7118 21.2565 11.453 21.2565H8.69997V21.1624C8.69997 20.7605 9.02692 20.4336 9.42878 20.4336H10.695H13.2762H14.5711ZM11.0642 15.9264L11.0192 14.1041L11.0068 13.6028L12.9711 13.3336L12.9134 15.673L11.0642 15.9264ZM12.8899 16.6224L12.8189 19.4961H11.1523L11.0874 16.8694L12.8899 16.6224ZM10.9835 12.6597L10.9264 10.3461L13.0521 10.0548L12.9946 12.3841L10.9835 12.6597ZM10.9031 9.40305L10.8458 7.07941L13.1333 6.76591L13.0756 9.1053L10.9031 9.40305ZM10.8225 6.13633L10.7634 3.74139H13.208L13.1568 5.81636L10.8225 6.13633ZM13.6885 2.80389H10.2828H8.97189C8.97184 2.80389 8.9718 2.80389 8.97175 2.80389H6.73295C6.83214 1.80166 7.68002 1.01617 8.70794 1.01617H15.2635C16.2914 1.01617 17.1393 1.80161 17.2385 2.80389H13.6885ZM17.7995 14.3427L17.8438 14.6336C17.8778 14.857 17.8228 15.0802 17.6889 15.2622C17.555 15.4442 17.3583 15.5632 17.1349 15.5972C16.9115 15.6311 16.6884 15.5762 16.5064 15.4423C16.3244 15.3085 16.2054 15.1117 16.1714 14.8884L16.1271 14.5975L17.7995 14.3427ZM22.3911 16.6644C22.1516 16.7347 21.899 16.7076 21.6798 16.5881C21.4607 16.4684 21.3013 16.2707 21.231 16.0312L21.1335 15.6994L21.8795 15.4802C21.9524 15.4768 22.0255 15.4571 22.0929 15.4179C22.0933 15.4177 22.0936 15.4174 22.0939 15.4173L22.9269 15.1725L23.0243 15.5043C23.1696 15.9987 22.8855 16.5191 22.3911 16.6644Z" fill="#4E2E8A"/>
<path d="M13.1488 21.2925C13.1202 21.3042 13.093 21.3188 13.0677 21.3356C13.0419 21.3525 13.018 21.3722 12.9964 21.3938C12.9749 21.4153 12.9552 21.4392 12.9383 21.465C12.9215 21.4903 12.9069 21.5175 12.8952 21.5461C12.8835 21.5742 12.8746 21.6038 12.8685 21.6338C12.8624 21.6638 12.8591 21.6947 12.8591 21.7252C12.8591 21.7556 12.8624 21.7866 12.8685 21.8166C12.8715 21.831 12.8751 21.8453 12.8793 21.8594C12.8838 21.8746 12.8891 21.8896 12.8952 21.9043C12.9069 21.9329 12.9215 21.9601 12.9383 21.9854C12.9552 22.0111 12.9749 22.0351 12.9964 22.0566C13.018 22.0782 13.0419 22.0979 13.0677 22.1152C13.093 22.1321 13.1202 22.1466 13.1488 22.1583C13.1769 22.1701 13.2064 22.179 13.2364 22.1851C13.2664 22.1911 13.2974 22.194 13.3278 22.194C13.3583 22.194 13.3892 22.1911 13.4197 22.1851C13.4492 22.179 13.4788 22.1701 13.5074 22.1583C13.5355 22.1466 13.5627 22.1321 13.588 22.1152C13.6138 22.0979 13.6377 22.0782 13.6592 22.0566C13.6808 22.0351 13.7005 22.0111 13.7178 21.9854C13.7347 21.9601 13.7492 21.9329 13.761 21.9043C13.7671 21.8896 13.7723 21.8746 13.7768 21.8594C13.7811 21.8453 13.7847 21.831 13.7877 21.8166C13.7938 21.7866 13.7966 21.7556 13.7966 21.7252C13.7966 21.6947 13.7937 21.6638 13.7877 21.6338C13.7816 21.6038 13.7727 21.5742 13.761 21.5461C13.7492 21.5175 13.7347 21.4903 13.7178 21.465C13.7005 21.4392 13.6808 21.4153 13.6592 21.3938C13.6377 21.3722 13.6138 21.3525 13.588 21.3356C13.5627 21.3188 13.5355 21.3042 13.5074 21.2925C13.4788 21.2808 13.4492 21.2719 13.4197 21.2658C13.3592 21.2536 13.2969 21.2536 13.2364 21.2658C13.2065 21.2719 13.1769 21.2808 13.1488 21.2925Z" fill="#4E2E8A"/>
</svg>
