<svg width="18" height="18" viewBox="0 0 18 18" fill="none" xmlns="http://www.w3.org/2000/svg">
<path d="M10 5.66667C10 5.11438 9.55229 4.66667 9 4.66667C8.44772 4.66667 8 5.11438 8 5.66667H10ZM8 12.3333C8 12.8856 8.44772 13.3333 9 13.3333C9.55229 13.3333 10 12.8856 10 12.3333H8ZM12.3333 10C12.8856 10 13.3333 9.55229 13.3333 9C13.3333 8.44772 12.8856 8 12.3333 8V10ZM5.66667 8C5.11438 8 4.66667 8.44772 4.66667 9C4.66667 9.55229 5.11438 10 5.66667 10V8ZM18 9C18 4.03105 13.969 0 9 0V2C12.8644 2 16 5.13562 16 9H18ZM9 0C4.03105 0 0 4.03105 0 9H2C2 5.13562 5.13562 2 9 2V0ZM0 9C0 13.969 4.03105 18 9 18V16C5.13562 16 2 12.8644 2 9H0ZM9 18C13.969 18 18 13.969 18 9H16C16 12.8644 12.8644 16 9 16V18ZM8 5.66667V12.3333H10V5.66667H8ZM12.3333 8H5.66667V10H12.3333V8Z" fill="white"/>
</svg>
