<svg width="98" height="98" viewBox="0 0 98 98" fill="none" xmlns="http://www.w3.org/2000/svg">
<path d="M47.4688 36.5586C41.4439 36.5586 36.5586 41.4439 36.5586 47.4688C36.5586 53.4936 41.4439 58.3789 47.4688 58.3789C53.4936 58.3789 58.3789 53.4936 58.3789 47.4688C58.3789 41.4439 53.4936 36.5586 47.4688 36.5586Z" stroke="#52449B" stroke-width="2" stroke-miterlimit="10"/>
<path d="M45.7461 45.7461H47.6602V52.6367" stroke="#52449B" stroke-width="2" stroke-linecap="round" stroke-linejoin="round"/>
<path d="M45.1719 53.0195H50.3398" stroke="#52449B" stroke-width="2" stroke-miterlimit="10" stroke-linecap="round"/>
<path d="M47.4688 40.3867C47.1659 40.3867 46.8698 40.4821 46.618 40.6609C46.3662 40.8397 46.17 41.0938 46.0541 41.3911C45.9382 41.6884 45.9078 42.0155 45.9669 42.3311C46.026 42.6467 46.1718 42.9366 46.386 43.1641C46.6001 43.3916 46.873 43.5466 47.17 43.6094C47.4671 43.6721 47.7749 43.6399 48.0547 43.5168C48.3345 43.3936 48.5737 43.1851 48.7419 42.9176C48.9102 42.65 49 42.3355 49 42.0137C49 41.5822 48.8387 41.1684 48.5515 40.8632C48.2643 40.5581 47.8749 40.3867 47.4688 40.3867Z" fill="#52449B"/>
</svg>
