<svg width="26" height="24" viewBox="0 0 26 24" fill="none" xmlns="http://www.w3.org/2000/svg">
<path d="M15 22.2968V16.7143C15 16.6461 14.9837 16.5788 14.9525 16.5182C14.9213 16.4575 14.876 16.4052 14.8205 16.3655L11.8205 14.2227C11.7478 14.1708 11.6607 14.1428 11.5714 14.1429H11.5686L9.42577 14.1566C9.31259 14.1574 9.2043 14.2028 9.12453 14.2831C9.04476 14.3634 8.99999 14.472 8.99999 14.5852V21.6874L6.42856 20.7231V18C6.42856 17.8863 6.38341 17.7773 6.30304 17.6969C6.22267 17.6166 6.11366 17.5714 5.99999 17.5714H0.857142V15H5.99999C6.11366 15 6.22267 14.9548 6.30304 14.8745C6.38341 14.7941 6.42856 14.6851 6.42856 14.5714V10.7143C6.42856 10.6006 6.38341 10.4916 6.30304 10.4112C6.22267 10.3309 6.11366 10.2857 5.99999 10.2857H0.857142V8.43718L1.83252 8.06218L1.5248 7.26215L0.274714 7.74295C0.193877 7.77404 0.124358 7.8289 0.075318 7.90029C0.0262779 7.97168 1.84106e-05 8.05625 0 8.14286V19.7143H0.857142V18.4286H5.57142V20.7019L0.857142 22.8989V20.5714H0V23.5714C3.32739e-06 23.6435 0.0181714 23.7144 0.0528246 23.7775C0.0874779 23.8407 0.137498 23.8941 0.19826 23.9328C0.259022 23.9715 0.328565 23.9943 0.40046 23.999C0.472355 24.0038 0.544281 23.9903 0.609589 23.9599L5.96437 21.4645L12.6531 23.9727C12.7498 24.009 12.8563 24.0091 12.9531 23.9731L16.4319 22.6786L16.133 21.875L15 22.2968ZM5.57142 11.1429V14.1429H0.857142V11.1429H5.57142ZM12.8041 23.1139L9.85713 22.0088V15.011L11.4353 15.0009L14.1428 16.9348V22.6158L12.8041 23.1139Z" fill="#4E2E8A"/>
<path d="M24.8572 13.7143H24V14.5714H24.8572V17.1428H23.5715V18H24.8572V22.5188L23.211 21.8857L22.9033 22.6857L25.1319 23.5429C25.1968 23.5678 25.2668 23.5766 25.3359 23.5685C25.405 23.5603 25.471 23.5355 25.5284 23.4961C25.5857 23.4567 25.6326 23.404 25.665 23.3425C25.6974 23.2809 25.7143 23.2124 25.7143 23.1428V10.2857H24.8572V13.7143Z" fill="#4E2E8A"/>
<path d="M25.4396 7.74283L19.8681 5.59997C19.7779 5.56529 19.6787 5.5621 19.5865 5.59092L12.8571 7.69387L10.2421 6.87663L9.98646 7.69478L10.528 7.86401L9.072 10.048C9.02505 10.1184 9 10.2011 9 10.2857V11.5714C9 11.6851 9.04515 11.7941 9.12553 11.8745C9.2059 11.9548 9.31491 12 9.42857 12H13.7143C13.7999 12 13.8836 11.9743 13.9546 11.9263C14.0255 11.8783 14.0804 11.8101 14.1122 11.7306L15.7264 7.6952L18.6263 6.78899L17.5865 10.6018L18.4135 10.8273L19.5974 6.48578L19.6996 6.45363L24.8571 8.43749V9.42856H25.7143V8.14285C25.7143 8.05622 25.688 7.97162 25.639 7.90021C25.5899 7.8288 25.5204 7.77393 25.4396 7.74283ZM13.4241 11.1428H9.85714V10.4155L11.3805 8.13042L12.7293 8.55192C12.8126 8.5779 12.9017 8.5779 12.985 8.55192L14.6713 8.02494L13.4241 11.1428Z" fill="#4E2E8A"/>
<path d="M3.70986 8.1602C4.32855 8.42538 5.14193 8.57142 5.99998 8.57142C6.85803 8.57142 7.6714 8.42538 8.2901 8.1602C9.28063 7.73571 9.42855 7.16158 9.42855 6.85713C9.42855 6.55269 9.28063 5.97856 8.2901 5.55406C7.77549 5.33351 7.12616 5.19541 6.42855 5.15512V4.28571H10.6071C10.8628 4.28541 11.1079 4.18372 11.2886 4.00295C11.4694 3.82217 11.5711 3.57708 11.5714 3.32142V0.428571C11.5714 0.314907 11.5262 0.205898 11.4459 0.125526C11.3655 0.045153 11.2565 0 11.1428 0H6.53569C6.28004 0.000297741 6.03494 0.101987 5.85417 0.282761C5.67339 0.463535 5.57171 0.708632 5.57141 0.964285V5.15512C4.8738 5.19541 4.22446 5.33351 3.70986 5.55406C2.71932 5.97856 2.57141 6.55269 2.57141 6.85713C2.57141 7.16158 2.71932 7.73571 3.70986 8.1602ZM6.42855 0.964285C6.42855 0.935869 6.43984 0.908616 6.45993 0.888523C6.48002 0.86843 6.50728 0.857142 6.53569 0.857142H10.7143V3.32142C10.7143 3.34984 10.703 3.37709 10.6829 3.39719C10.6628 3.41728 10.6355 3.42857 10.6071 3.42857H6.42855V0.964285ZM5.57141 6.01376V6.85713H6.42855V6.01376C7.76821 6.10103 8.5714 6.58306 8.5714 6.85713C8.5714 7.15933 7.59512 7.71428 5.99998 7.71428C4.40484 7.71428 3.42855 7.15933 3.42855 6.85713C3.42855 6.58306 4.23175 6.10103 5.57141 6.01376Z" fill="#4E2E8A"/>
<path d="M21.3741 19.4845C21.5017 19.3374 21.6323 19.1813 21.7631 19.0178C22.963 17.5179 23.5713 16.1662 23.5713 15C23.5713 13.977 23.165 12.996 22.4416 12.2726C21.7182 11.5493 20.7372 11.1429 19.7142 11.1429C18.6912 11.1429 17.7101 11.5493 16.9868 12.2726C16.2634 12.996 15.8571 13.977 15.8571 15C15.8571 16.1662 16.4654 17.5179 17.6652 19.0179C17.7961 19.1814 17.9267 19.3375 18.0543 19.4846C16.959 19.7694 16.2856 20.3298 16.2856 21C16.2856 21.3045 16.4335 21.8786 17.4241 22.3031C18.0428 22.5683 18.8561 22.7143 19.7142 22.7143C20.5722 22.7143 21.3856 22.5683 22.0043 22.3031C22.9949 21.8786 23.1428 21.3045 23.1428 21C23.1428 20.3298 22.4694 19.7694 21.3741 19.4845ZM16.7142 15C16.7142 14.2044 17.0303 13.4413 17.5929 12.8787C18.1555 12.3161 18.9185 12 19.7142 12C20.5098 12 21.2729 12.3161 21.8355 12.8787C22.3981 13.4413 22.7142 14.2044 22.7142 15C22.7142 15.9504 22.157 17.1509 21.1022 18.4718C20.6726 19.0062 20.2089 19.5123 19.7142 19.987C19.2226 19.5154 18.7618 19.0128 18.3346 18.4822C17.2745 17.1572 16.7142 15.9531 16.7142 15ZM19.7142 21.8572C18.1191 21.8572 17.1428 21.3022 17.1428 21C17.1428 20.775 17.7059 20.3835 18.7299 20.2188C19.1289 20.6276 19.4116 20.8761 19.432 20.8938C19.5101 20.9621 19.6104 20.9998 19.7142 20.9998C19.818 20.9998 19.9183 20.9621 19.9964 20.8938C20.0168 20.8759 20.2995 20.6274 20.6985 20.2188C21.7225 20.3835 22.2856 20.775 22.2856 21C22.2856 21.3022 21.3093 21.8572 19.7142 21.8572Z" fill="#4E2E8A"/>
<path d="M19.7143 16.7143C20.0533 16.7143 20.3848 16.6137 20.6667 16.4254C20.9486 16.237 21.1683 15.9693 21.2981 15.656C21.4278 15.3428 21.4618 14.9981 21.3956 14.6656C21.3295 14.333 21.1662 14.0276 20.9265 13.7878C20.6867 13.5481 20.3813 13.3848 20.0487 13.3186C19.7162 13.2525 19.3715 13.2864 19.0583 13.4162C18.745 13.5459 18.4773 13.7657 18.2889 14.0476C18.1005 14.3295 18 14.6609 18 15C18.0005 15.4545 18.1813 15.8902 18.5027 16.2116C18.824 16.533 19.2598 16.7138 19.7143 16.7143ZM19.7143 14.1428C19.8838 14.1428 20.0495 14.1931 20.1905 14.2873C20.3314 14.3815 20.4413 14.5154 20.5062 14.672C20.5711 14.8286 20.588 15.0009 20.555 15.1672C20.5219 15.3335 20.4402 15.4862 20.3204 15.6061C20.2005 15.726 20.0478 15.8076 19.8815 15.8407C19.7152 15.8737 19.5429 15.8568 19.3863 15.7919C19.2296 15.727 19.0958 15.6171 19.0016 15.4762C18.9074 15.3352 18.8571 15.1695 18.8571 15C18.8574 14.7727 18.9478 14.5549 19.1085 14.3942C19.2692 14.2335 19.487 14.1431 19.7143 14.1428Z" fill="#4E2E8A"/>
</svg>
