<svg width="22" height="22" viewBox="0 0 22 22" fill="none" xmlns="http://www.w3.org/2000/svg">
<path d="M9.18177 1L9.18184 0H9.18177V1ZM7.58559 17.2063L7.3905 18.1871L7.58559 17.2063ZM17.3635 9.18177H18.3635V9.18171L17.3635 9.18177ZM15.993 14.5788C15.6025 14.1883 14.9694 14.1883 14.5788 14.5788C14.1883 14.9694 14.1883 15.6025 14.5788 15.993L15.993 14.5788ZM20.2929 21.7071C20.6834 22.0976 21.3166 22.0976 21.7071 21.7071C22.0976 21.3166 22.0976 20.6834 21.7071 20.2929L20.2929 21.7071ZM9.18177 0C7.36579 0 5.59059 0.538502 4.08066 1.54741L5.1918 3.21035C6.37283 2.4212 7.76135 2 9.18177 2V0ZM4.08066 1.54741C2.57072 2.55631 1.39387 3.99031 0.698924 5.66806L2.54668 6.43343C3.09025 5.12113 4.01076 3.99949 5.1918 3.21035L4.08066 1.54741ZM0.698924 5.66806C0.00397784 7.34581 -0.177852 9.19196 0.176429 10.973L2.138 10.5829C1.86089 9.18974 2.00311 7.74572 2.54668 6.43343L0.698924 5.66806ZM0.176429 10.973C0.530709 12.7541 1.40519 14.3902 2.68928 15.6743L4.1035 14.26C3.09911 13.2557 2.41511 11.976 2.138 10.5829L0.176429 10.973ZM2.68928 15.6743C3.97338 16.9584 5.60941 17.8328 7.3905 18.1871L7.78068 16.2255C6.38755 15.9484 5.10788 15.2644 4.1035 14.26L2.68928 15.6743ZM7.3905 18.1871C9.17159 18.5414 11.0177 18.3596 12.6955 17.6646L11.9301 15.8169C10.6178 16.3604 9.17381 16.5027 7.78068 16.2255L7.3905 18.1871ZM12.6955 17.6646C14.3732 16.9697 15.8072 15.7928 16.8161 14.2829L15.1532 13.1717C14.3641 14.3528 13.2424 15.2733 11.9301 15.8169L12.6955 17.6646ZM16.8161 14.2829C17.825 12.773 18.3635 10.9978 18.3635 9.18177H16.3635C16.3635 10.6022 15.9423 11.9907 15.1532 13.1717L16.8161 14.2829ZM18.3635 9.18171C18.3634 6.74661 17.396 4.4113 15.6741 2.68943L14.2599 4.10364C15.6067 5.45047 16.3634 7.27713 16.3635 9.18183L18.3635 9.18171ZM15.6741 2.68943C13.9522 0.967561 11.6169 0.000154972 9.18184 0L9.18171 2C11.0864 2.00012 12.9131 2.75682 14.2599 4.10364L15.6741 2.68943ZM14.5788 15.993L20.2929 21.7071L21.7071 20.2929L15.993 14.5788L14.5788 15.993Z" fill="#B4B4B4"/>
</svg>
