<svg width="24" height="11" viewBox="0 0 24 11" fill="none" xmlns="http://www.w3.org/2000/svg">
<path d="M16.6406 10.2188H16.1411C15.2309 10.2188 14.3751 9.86512 13.7316 9.22308L12.9363 8.42967C12.4329 7.9275 11.614 7.9275 11.1108 8.42967L10.3155 9.22308C9.67191 9.86512 8.81616 10.2188 7.90589 10.2188H5.751C3.8722 10.2188 2.34375 8.69423 2.34375 6.82031V2.22656C2.34375 1.38656 3.02911 0.703125 3.87159 0.703125H5.67188C5.86608 0.703125 6.02344 0.545719 6.02344 0.351562C6.02344 0.157406 5.86608 0 5.67188 0H3.87159C2.64145 0 1.64062 0.998859 1.64062 2.22656V2.92969H0.820312C0.368016 2.92969 0 3.2977 0 3.75V6.32812C0 6.78042 0.368016 7.14844 0.820312 7.14844H1.6538C1.82189 9.2572 3.59522 10.9219 5.75095 10.9219H7.90584C9.00361 10.9219 10.0357 10.4953 10.812 9.72084L11.6073 8.92744C11.8369 8.69845 12.2102 8.69845 12.4397 8.92744L13.235 9.72084C14.0113 10.4953 15.0434 10.9219 16.1411 10.9219H16.6406C16.8348 10.9219 16.9922 10.7645 16.9922 10.5703C16.9922 10.3761 16.8348 10.2188 16.6406 10.2188ZM0.703125 6.32812V3.75C0.703125 3.68541 0.755672 3.63281 0.820312 3.63281H1.64062V6.44531H0.820312C0.755672 6.44531 0.703125 6.39277 0.703125 6.32812Z" fill="#4E2E8A"/>
<path d="M12.0235 6.64612C11.2812 6.64514 10.5833 6.94523 10.0694 7.47914C9.93197 7.6163 9.93173 7.83891 10.0689 7.9763C10.206 8.11378 10.4287 8.11392 10.566 7.97681C10.9476 7.57575 11.4684 7.34808 12.0234 7.3492C12.5575 7.3492 13.0595 7.55658 13.437 7.93308L14.2326 8.72648C14.7429 9.23531 15.4212 9.51558 16.1427 9.51558H18.2513C19.7412 9.51562 20.9531 8.30653 20.9531 6.82031V2.22656C20.9531 1.77427 20.5846 1.40625 20.1315 1.40625H3.86845C3.41541 1.40625 3.04688 1.77427 3.04688 2.22656V6.82031C3.04688 8.30653 4.25883 9.51562 5.74861 9.51562H7.9043C8.39259 9.51562 8.87011 9.38508 9.28523 9.13805C9.45211 9.03877 9.50691 8.823 9.40758 8.65617C9.3083 8.48925 9.09248 8.4345 8.9257 8.53383C8.61928 8.71617 8.26613 8.8125 7.9043 8.8125H5.74861C4.64658 8.8125 3.75 7.91883 3.75 6.82031V2.22656C3.75 2.16197 3.80316 2.10938 3.86845 2.10938H20.1315C20.1968 2.10938 20.25 2.16197 20.25 2.22656V6.82031C20.25 7.91883 19.3534 8.8125 18.2513 8.8125H16.1427C15.6086 8.8125 15.1066 8.60513 14.7291 8.22867L13.9335 7.43527C13.4234 6.92639 12.745 6.64612 12.0235 6.64612Z" fill="#4E2E8A"/>
<path d="M4.6875 5.46094C4.6875 6.80498 5.78095 7.89844 7.125 7.89844C8.46905 7.89844 9.5625 6.80498 9.5625 5.46094C9.5625 4.11689 8.46905 3.02344 7.125 3.02344C5.78095 3.02344 4.6875 4.11689 4.6875 5.46094ZM8.85938 5.46094C8.85938 6.41728 8.08134 7.19531 7.125 7.19531C6.16866 7.19531 5.39062 6.41728 5.39062 5.46094C5.39062 4.50459 6.16866 3.72656 7.125 3.72656C8.08134 3.72656 8.85938 4.50459 8.85938 5.46094Z" fill="#4E2E8A"/>
<path d="M17.6178 7.02827C17.1991 7.2266 16.7283 7.25017 16.292 7.09441C15.8556 6.93869 15.5061 6.62238 15.3077 6.20374C15.1902 5.95577 15.134 5.69214 15.1407 5.42027C15.1455 5.22616 14.9919 5.06496 14.7979 5.06022C14.6042 5.05422 14.4426 5.20896 14.4378 5.40307C14.4284 5.78585 14.5073 6.15653 14.6724 6.50486C14.9512 7.09324 15.4425 7.53775 16.0556 7.75666C16.3235 7.85224 16.6005 7.89977 16.8767 7.89977C17.2329 7.89977 17.5876 7.82069 17.9189 7.66366C18.5073 7.38485 18.9518 6.89355 19.1707 6.28038C19.3896 5.66716 19.3565 5.00542 19.0777 4.4171C18.5022 3.20252 17.0457 2.68272 15.8311 3.2583C15.6146 3.36096 15.4153 3.49389 15.239 3.65332C15.0951 3.78358 15.0839 4.00586 15.2141 4.14986C15.3444 4.29396 15.5667 4.30506 15.7107 4.1748C15.836 4.0615 15.9778 3.96691 16.1323 3.89369C16.9965 3.4841 18.0328 3.85403 18.4423 4.71822C18.6407 5.13686 18.6642 5.60772 18.5085 6.04399C18.3527 6.4803 18.0364 6.82985 17.6178 7.02827Z" fill="#4E2E8A"/>
<path d="M23.1797 2.92969H22.3594V2.22656C22.3594 0.998859 21.3585 0 20.1284 0H7.3125C7.1183 0 6.96094 0.157406 6.96094 0.351562C6.96094 0.545719 7.1183 0.703125 7.3125 0.703125H20.1284C20.9709 0.703125 21.6562 1.38656 21.6562 2.22656V6.82031C21.6562 8.67858 20.1409 10.203 18.2783 10.2186C18.0841 10.2203 17.928 10.379 17.9296 10.5731C17.9313 10.7663 18.0884 10.9218 18.2812 10.9218H18.2841C20.4205 10.9039 22.1781 9.23981 22.346 7.14848H23.1797C23.632 7.14848 24 6.78047 24 6.32817V3.75005C24 3.2977 23.632 2.92969 23.1797 2.92969ZM23.2969 6.32812C23.2969 6.39277 23.2443 6.44531 23.1797 6.44531H22.3594V3.63281H23.1797C23.2443 3.63281 23.2969 3.68541 23.2969 3.75V6.32812Z" fill="#4E2E8A"/>
</svg>
