<svg width="24" height="24" viewBox="0 0 24 24" fill="none" xmlns="http://www.w3.org/2000/svg">
<path d="M20.1147 8.43853C20.0087 4.05422 16.4093 0.520264 12 0.520264C7.59066 0.520264 3.99131 4.05422 3.88533 8.43853C1.55672 9.86695 0 12.4363 0 15.3626C0 16.6443 0.290625 17.8712 0.863812 19.0091C0.951187 19.1825 1.16259 19.2523 1.33594 19.1649C1.50933 19.0776 1.57912 18.8662 1.49175 18.6928C0.968484 17.6539 0.703125 16.5335 0.703125 15.3626C0.703125 12.8372 1.97269 10.603 3.90675 9.26372C4.11098 11.9279 5.60719 14.2359 7.76813 15.5616C7.83323 18.2561 9.21806 20.629 11.2993 22.0582C10.3345 22.5186 9.25547 22.7767 8.1172 22.7767C5.77444 22.7767 3.61856 21.7037 2.20233 19.8329C2.08514 19.6781 1.86469 19.6476 1.70981 19.7648C1.55503 19.8819 1.52452 20.1024 1.6417 20.2573C2.38289 21.2363 3.35161 22.0473 4.44309 22.6024C5.58797 23.1846 6.82406 23.4798 8.11716 23.4798C9.52275 23.4798 10.8459 23.1205 12 22.4893C13.154 23.1206 14.4772 23.4798 15.8827 23.4798C20.3586 23.4798 24 19.8385 24 15.3627C24 12.4364 22.4433 9.867 20.1147 8.43853ZM16.2104 14.7364C16.0174 12.2193 14.6711 10.0202 12.7006 8.6671C13.6654 8.20674 14.7445 7.9486 15.8827 7.9486C17.1592 7.9486 18.3613 8.27283 19.411 8.84325C19.3442 11.284 18.0918 13.4336 16.2104 14.7364ZM15.5282 15.1568C14.4785 15.7273 13.2764 16.0515 12 16.0515C10.7236 16.0515 9.52148 15.7273 8.47172 15.1568C8.54241 12.577 9.93755 10.3224 12 9.04927C14.0625 10.3223 15.4575 12.577 15.5282 15.1568ZM12 1.22339C15.888 1.22339 19.0864 4.23183 19.3902 8.04309C18.328 7.53206 17.1383 7.24547 15.8828 7.24547C14.4772 7.24547 13.1541 7.60477 12 8.23603C10.8459 7.60472 9.52275 7.24547 8.1172 7.24547C6.86175 7.24547 5.67202 7.53206 4.60983 8.04309C4.91353 4.23183 8.11195 1.22339 12 1.22339ZM4.58892 8.84325C5.63869 8.27283 6.8408 7.9486 8.1172 7.9486C9.25552 7.9486 10.3346 8.20674 11.2994 8.6671C9.32892 10.0202 7.98258 12.2193 7.78959 14.7364C5.90822 13.4335 4.65577 11.284 4.58892 8.84325ZM8.49262 15.957C9.55481 16.468 10.7446 16.7546 12 16.7546C13.2555 16.7546 14.4452 16.468 15.5074 15.957C15.3148 18.3737 13.9582 20.4673 12 21.6761C10.0417 20.4673 8.68519 18.3737 8.49262 15.957ZM15.8828 22.7767C14.7445 22.7767 13.6654 22.5186 12.7006 22.0582C14.7818 20.629 16.1667 18.2561 16.2318 15.5616C18.3928 14.236 19.889 11.9279 20.0932 9.26372C22.0273 10.603 23.2969 12.8372 23.2969 15.3627C23.2969 19.4508 19.9709 22.7767 15.8828 22.7767Z" fill="white"/>
</svg>
