<svg width="182" height="39" viewBox="0 0 182 39" fill="none" xmlns="http://www.w3.org/2000/svg">
<path d="M61.2329 10.6396C63.0416 11.6248 64.4715 12.9861 65.5164 14.7116C66.5612 16.4371 67.0806 18.3417 67.0806 20.4254C67.0806 22.5092 66.5612 24.4078 65.5164 26.1214C64.4715 27.8409 63.0416 29.1903 61.2207 30.1754C59.3998 31.1606 57.3772 31.6562 55.1591 31.6562H45.9629V9.15891H55.2202C57.4139 9.15891 59.4181 9.65447 61.2329 10.6396ZM60.0597 28.438C61.5079 27.62 62.6567 26.5095 63.4999 25.1064C64.3431 23.7033 64.7709 22.139 64.7709 20.4254C64.7709 18.7119 64.3431 17.1416 63.4877 15.7266C62.6322 14.3115 61.4712 13.195 60.0108 12.3771C58.5504 11.5591 56.9434 11.1531 55.1836 11.1531H48.236V29.662H55.2874C57.0228 29.662 58.6115 29.256 60.0597 28.438Z" fill="#F05A86"/>
<path d="M73.8939 8.8544C74.1811 9.14696 74.3216 9.5052 74.3216 9.93508C74.3216 10.365 74.175 10.7292 73.8755 11.0277C73.5761 11.3262 73.2217 11.4755 72.8062 11.4755C72.3663 11.4755 71.9996 11.3262 71.7002 11.0277C71.4008 10.7292 71.2542 10.365 71.2542 9.93508C71.2542 9.5052 71.4008 9.14696 71.7002 8.8544C71.9996 8.56184 72.3663 8.41855 72.8062 8.41855C73.2462 8.41855 73.6128 8.56781 73.8939 8.8544ZM71.688 14.7952H73.8939V31.6621H71.688V14.7952Z" fill="#F05A86"/>
<path d="M95.2377 14.7952V29.8889C95.2377 31.5189 94.8894 32.9458 94.1806 34.1698C93.4718 35.3938 92.4758 36.3312 91.1682 36.9879C89.8605 37.6447 88.3512 37.9671 86.6403 37.9671C84.0922 37.9671 81.7336 37.1073 79.5583 35.3938L80.6093 33.8474C81.4892 34.5997 82.4119 35.1669 83.3773 35.555C84.3428 35.9431 85.3999 36.1341 86.5364 36.1341C88.5101 36.1341 90.0866 35.5729 91.2659 34.4444C92.4391 33.316 93.0258 31.8114 93.0258 29.9247V27.1902C92.4086 28.3723 91.5348 29.2918 90.3921 29.9605C89.2495 30.6233 87.9296 30.9576 86.4387 30.9576C84.8988 30.9576 83.5362 30.6113 82.3386 29.9128C81.1409 29.2142 80.206 28.2529 79.54 27.017C78.8678 25.7811 78.5378 24.384 78.5378 22.8137C78.5378 21.2494 78.8739 19.8523 79.54 18.6283C80.2121 17.4043 81.147 16.449 82.3569 15.7624C83.5668 15.0758 84.9355 14.7355 86.4753 14.7355C87.9663 14.7355 89.2739 15.0639 90.3921 15.7147C91.5104 16.3714 92.3903 17.2969 93.0258 18.497V14.7952H95.2377ZM90.0377 28.3903C90.9849 27.841 91.7181 27.0887 92.2436 26.1214C92.7691 25.1542 93.0319 24.0735 93.0319 22.8734C93.0319 21.6494 92.7691 20.5568 92.2436 19.5896C91.7181 18.6223 90.9788 17.87 90.0377 17.3207C89.0906 16.7715 88.0274 16.5028 86.842 16.5028C85.6565 16.5028 84.5933 16.7774 83.6462 17.3207C82.6991 17.87 81.9597 18.6223 81.422 19.5896C80.8843 20.5568 80.6154 21.6494 80.6154 22.8734C80.6154 24.0974 80.8843 25.184 81.422 26.1393C81.9597 27.0946 82.693 27.8469 83.6279 28.3903C84.5628 28.9395 85.6321 29.2082 86.842 29.2082C88.0274 29.2142 89.0906 28.9395 90.0377 28.3903Z" fill="#F05A86"/>
<path d="M103.444 8.8544C103.731 9.14696 103.872 9.5052 103.872 9.93508C103.872 10.365 103.725 10.7292 103.426 11.0277C103.126 11.3262 102.772 11.4755 102.356 11.4755C101.916 11.4755 101.55 11.3262 101.25 11.0277C100.951 10.7292 100.804 10.365 100.804 9.93508C100.804 9.5052 100.951 9.14696 101.25 8.8544C101.55 8.56184 101.916 8.41855 102.356 8.41855C102.796 8.41855 103.157 8.56781 103.444 8.8544ZM101.238 14.7952H103.444V31.6621H101.238V14.7952Z" fill="#F05A86"/>
<path d="M113.355 30.9934V14.6817C113.355 14.3175 113.05 14.019 112.677 14.019H107.446C107.074 14.019 106.768 13.7205 106.768 13.3562V10.9501C106.768 10.5859 107.074 10.2874 107.446 10.2874H123.877C124.25 10.2874 124.556 10.5859 124.556 10.9501V13.3562C124.556 13.7205 124.25 14.019 123.877 14.019H118.616C118.243 14.019 117.938 14.3175 117.938 14.6817V30.9934C117.938 31.3576 117.632 31.6562 117.26 31.6562H114.04C113.661 31.6562 113.355 31.3636 113.355 30.9934Z" fill="#4E2E8A"/>
<path d="M127.324 13.2607V10.6933C127.324 10.3291 127.629 10.0306 128.002 10.0306H130.923C131.296 10.0306 131.601 10.3291 131.601 10.6933V13.2607C131.601 13.6249 131.296 13.9234 130.923 13.9234H128.002C127.629 13.9234 127.324 13.6249 127.324 13.2607ZM127.324 30.9934V16.4848C127.324 16.1206 127.629 15.8221 128.002 15.8221H130.923C131.296 15.8221 131.601 16.1206 131.601 16.4848V30.9934C131.601 31.3576 131.296 31.6561 130.923 31.6561H128.002C127.629 31.6561 127.324 31.3636 127.324 30.9934Z" fill="#4E2E8A"/>
<path d="M144.824 31.286L141.879 25.393C141.671 24.981 141.109 24.8915 140.779 25.2198L139.569 26.4379C139.447 26.5632 139.38 26.7244 139.38 26.8976V30.9875C139.38 31.3517 139.074 31.6502 138.701 31.6502H135.744C135.371 31.6502 135.066 31.3517 135.066 30.9875V10.6874C135.066 10.3232 135.371 10.0247 135.744 10.0247H138.701C139.074 10.0247 139.38 10.3232 139.38 10.6874V20.0612C139.38 20.6762 140.162 20.9628 140.571 20.4971L144.512 16.055C144.641 15.9117 144.83 15.8281 145.026 15.8281H148.417C149.01 15.8281 149.315 16.5147 148.918 16.9386L144.836 21.3091C144.647 21.5121 144.604 21.8166 144.732 22.0614L149.303 30.6949C149.535 31.1367 149.211 31.6621 148.698 31.6621H145.429C145.172 31.6562 144.94 31.5129 144.824 31.286Z" fill="#4E2E8A"/>
<path d="M155.456 24.8317C155.041 24.8317 154.711 25.196 154.784 25.596C154.937 26.4438 155.261 27.1424 155.768 27.6917C156.416 28.4022 157.265 28.7544 158.322 28.7544C159.025 28.7544 159.642 28.5992 160.186 28.2887C160.589 28.0559 160.888 27.7514 161.078 27.3752C161.194 27.1424 161.426 26.9871 161.695 26.9871H164.671C165.153 26.9871 165.49 27.4648 165.3 27.8947C164.775 29.0888 164.011 30.0441 163.003 30.7486C161.75 31.6263 160.259 32.0681 158.524 32.0681C153.122 32.0681 150.421 29.1903 150.421 23.4406C150.421 22.2166 150.598 21.1121 150.947 20.1269C151.295 19.1418 151.808 18.2939 152.48 17.5834C153.153 16.8729 153.965 16.3356 154.937 15.9594C155.902 15.5833 157.014 15.3982 158.261 15.3982C160.766 15.3982 162.66 16.1803 163.944 17.7506C165.135 19.2015 165.771 21.327 165.862 24.1392C165.875 24.5153 165.569 24.8317 165.184 24.8317H155.456ZM160.687 22.1927C161.114 22.1927 161.438 21.8106 161.353 21.3987C161.298 21.1359 161.224 20.8911 161.133 20.6643C160.943 20.2224 160.699 19.8582 160.393 19.5716C160.088 19.2791 159.734 19.0701 159.336 18.9268C158.939 18.7895 158.536 18.7178 158.12 18.7178C157.265 18.7178 156.526 19.0223 155.896 19.6373C155.438 20.0851 155.126 20.6583 154.955 21.3628C154.851 21.7867 155.169 22.1987 155.615 22.1987H160.687V22.1927Z" fill="#4E2E8A"/>
<path d="M178.694 21.2315H181.322C181.695 21.2315 182 21.53 182 21.8942V25.7393C182 26.5752 181.872 27.3752 181.621 28.1395C181.371 28.9037 180.974 29.5784 180.436 30.1695C179.898 30.7605 179.22 31.2263 178.395 31.5666C177.57 31.9069 176.586 32.0801 175.45 32.0801C174.264 32.0801 173.256 31.9069 172.419 31.5666C171.582 31.2263 170.897 30.7605 170.36 30.1814C169.822 29.6022 169.431 28.9276 169.193 28.1514C168.948 27.3812 168.832 26.5632 168.832 25.7034V12.2039C168.832 11.8397 169.138 11.5412 169.51 11.5412H172.37C172.743 11.5412 173.048 11.8397 173.048 12.2039V15.1594C173.048 15.5236 173.354 15.8221 173.727 15.8221H181.328C181.701 15.8221 182.006 16.1206 182.006 16.4848V18.1208C182.006 18.485 181.701 18.7835 181.328 18.7835H173.72C173.348 18.7835 173.042 19.082 173.042 19.4462V25.2855C173.042 26.2945 173.232 27.0707 173.617 27.62C174.001 28.1693 174.631 28.438 175.511 28.438C176.366 28.438 176.996 28.1693 177.405 27.632C177.808 27.0946 178.016 26.3363 178.016 25.3452V21.8882C178.016 21.524 178.322 21.2315 178.694 21.2315Z" fill="#4E2E8A"/>
<path d="M26.9532 5.68402C23.0364 1.91059 18.2458 0 12.7036 0H1.23431C0.556052 0 0 0.543325 0 1.20606V5.3616C0 6.03031 0.556052 6.56767 1.23431 6.56767H6.97814H12.1598C16.2844 6.56767 19.5718 7.79761 22.1993 10.3172C24.8268 12.8726 26.11 15.8639 26.11 19.4701C26.11 23.0585 24.8268 26.0378 22.1932 28.5813C19.5474 31.1367 16.2355 32.3905 12.0865 32.4204H8.21857C7.53419 32.4204 6.98425 31.8771 6.98425 31.2143V20.0493C6.98425 19.3806 7.5403 18.8432 8.21857 18.8432H16.266C16.7243 18.8432 17.091 19.2074 17.091 19.6493V23.8526C17.091 24.378 17.5248 24.8019 18.0625 24.8019H21.6127C22.1504 24.8019 22.5843 24.378 22.5843 23.8526V14.0011C22.5843 13.4757 22.1504 13.0517 21.6127 13.0517H20.1523C20.1645 13.1353 20.1767 13.2249 20.1767 13.3145C20.1767 14.1862 19.4496 14.8967 18.5575 14.8967C17.6653 14.8967 16.9382 14.1862 16.9382 13.3145C16.9382 13.201 16.9504 13.0935 16.9749 12.9861H15.7528C15.7528 13.8578 15.0256 14.5683 14.1335 14.5683C13.2414 14.5683 12.5142 13.8578 12.5142 12.9861H10.7972C10.7972 13.8578 10.07 14.5683 9.17791 14.5683C8.28578 14.5683 7.55864 13.8578 7.55864 12.9861H6.99036H5.7866C5.7866 13.8578 5.05946 14.5683 4.16733 14.5683C3.27521 14.5683 2.54806 13.8578 2.54806 12.9861H1.23431C0.556052 12.9861 0 13.5294 0 14.1921V18.8373V37.7939C0 38.4626 0.556052 39 1.23431 39H1.60705H12.722C18.2519 38.9463 23.0425 37.0058 26.9532 33.2384C30.8761 29.459 32.8682 24.8258 32.8682 19.4761C32.8682 14.1026 30.8761 9.46341 26.9532 5.68402Z" fill="url(#paint0_linear)"/>
<path d="M10.0333 19.8105H8.51183C8.21853 19.8105 7.98022 20.0433 7.98022 20.3299V21.8166H10.0333V19.8105Z" fill="#F05A86"/>
<path d="M16.2173 20.4672C16.2173 20.109 15.9178 19.8164 15.5512 19.8164H14.543H14.1641H12.4899H10.4368V21.8226H12.111V23.8287H14.1641V21.8226H14.543H16.2173V20.4672Z" fill="#F05A86"/>
<path d="M7.98022 24.1989V26.205V28.2111H10.0333V26.205V25.793H12.0926V23.7869H10.0333V22.1927H7.98022V24.1989Z" fill="#F05A86"/>
<path d="M16.2172 25.793H14.1641V27.7991H16.2172V25.793Z" fill="#F05A86"/>
<path d="M13.3759 26.6826H11.3228V28.6888H13.3759V26.6826Z" fill="#F05A86"/>
<path d="M7.98022 30.3546C7.98022 30.8322 8.3774 31.2203 8.86624 31.2203H10.0333H12.0865V29.2142H10.0333H7.98022V30.3546Z" fill="#F05A86"/>
<path d="M14.1641 30.7008H15.5084C15.8994 30.7008 16.2233 30.3904 16.2233 30.0023V28.6888H14.1702V30.7008H14.1641Z" fill="#F05A86"/>
<defs>
<linearGradient id="paint0_linear" x1="0" y1="19.5003" x2="32.8663" y2="19.5003" gradientUnits="userSpaceOnUse">
<stop stop-color="#6C7FBE"/>
<stop offset="1" stop-color="#52449B"/>
</linearGradient>
</defs>
</svg>
