<svg width="26" height="24" viewBox="0 0 26 24" fill="none" xmlns="http://www.w3.org/2000/svg">
<path d="M15 22.2969V16.7143C15 16.6461 14.9837 16.5789 14.9525 16.5182C14.9213 16.4576 14.876 16.4052 14.8205 16.3656L11.8205 14.2227C11.7478 14.1708 11.6607 14.1429 11.5714 14.1429H11.5686L9.42577 14.1567C9.31259 14.1574 9.2043 14.2029 9.12453 14.2832C9.04476 14.3635 8.99999 14.4721 8.99999 14.5853V21.6874L6.42856 20.7231V18.0001C6.42856 17.8864 6.38341 17.7774 6.30304 17.697C6.22267 17.6166 6.11366 17.5715 5.99999 17.5715H0.857142V15.0001H5.99999C6.11366 15.0001 6.22267 14.9549 6.30304 14.8745C6.38341 14.7942 6.42856 14.6851 6.42856 14.5715V10.7143C6.42856 10.6007 6.38341 10.4917 6.30304 10.4113C6.22267 10.3309 6.11366 10.2858 5.99999 10.2858H0.857142V8.43724L1.83252 8.06224L1.5248 7.26221L0.274714 7.74301C0.193877 7.7741 0.124358 7.82896 0.075318 7.90035C0.0262779 7.97174 1.84106e-05 8.05631 0 8.14292V19.7143H0.857142V18.4286H5.57142V20.702L0.857142 22.8989V20.5715H0V23.5715C3.32739e-06 23.6435 0.0181714 23.7144 0.0528246 23.7776C0.0874779 23.8407 0.137498 23.8942 0.19826 23.9329C0.259022 23.9716 0.328565 23.9944 0.40046 23.9991C0.472355 24.0038 0.544281 23.9904 0.609589 23.9599L5.96437 21.4645L12.6531 23.9728C12.7498 24.009 12.8563 24.0092 12.9531 23.9732L16.4319 22.6787L16.133 21.8751L15 22.2969ZM5.57142 11.1429V14.1429H0.857142V11.1429H5.57142ZM12.8041 23.114L9.85713 22.0089V15.0111L11.4353 15.001L14.1428 16.9349V22.6159L12.8041 23.114Z" fill="#4E2E8A"/>
<path d="M24.8572 13.7142H24V14.5714H24.8572V17.1428H23.5715V17.9999H24.8572V22.5188L23.211 21.8856L22.9033 22.6856L25.1319 23.5428C25.1968 23.5678 25.2668 23.5766 25.3359 23.5684C25.405 23.5603 25.471 23.5354 25.5284 23.4961C25.5857 23.4567 25.6326 23.4039 25.665 23.3424C25.6974 23.2808 25.7143 23.2123 25.7143 23.1428V10.2856H24.8572V13.7142Z" fill="#4E2E8A"/>
<path d="M25.4396 7.74283L19.8681 5.59997C19.7779 5.56529 19.6787 5.5621 19.5865 5.59092L12.8571 7.69387L10.2421 6.87663L9.98646 7.69478L10.528 7.86401L9.072 10.048C9.02505 10.1184 9 10.2011 9 10.2857V11.5714C9 11.6851 9.04515 11.7941 9.12553 11.8745C9.2059 11.9548 9.31491 12 9.42857 12H13.7143C13.7999 12 13.8836 11.9743 13.9546 11.9263C14.0255 11.8783 14.0804 11.8101 14.1122 11.7306L15.7264 7.6952L18.6263 6.78899L17.5865 10.6018L18.4135 10.8273L19.5974 6.48578L19.6996 6.45363L24.8571 8.43749V9.42856H25.7143V8.14285C25.7143 8.05622 25.688 7.97162 25.639 7.90021C25.5899 7.8288 25.5204 7.77393 25.4396 7.74283ZM13.4241 11.1428H9.85714V10.4155L11.3805 8.13042L12.7293 8.55192C12.8126 8.5779 12.9017 8.5779 12.985 8.55192L14.6713 8.02494L13.4241 11.1428Z" fill="#4E2E8A"/>
<path d="M3.70986 8.1602C4.32855 8.42538 5.14193 8.57142 5.99998 8.57142C6.85803 8.57142 7.6714 8.42538 8.2901 8.1602C9.28063 7.73571 9.42855 7.16158 9.42855 6.85713C9.42855 6.55269 9.28063 5.97856 8.2901 5.55406C7.77549 5.33351 7.12616 5.19541 6.42855 5.15512V4.28571H10.6071C10.8628 4.28541 11.1079 4.18372 11.2886 4.00295C11.4694 3.82217 11.5711 3.57708 11.5714 3.32142V0.428571C11.5714 0.314907 11.5262 0.205898 11.4459 0.125526C11.3655 0.045153 11.2565 0 11.1428 0H6.53569C6.28004 0.000297741 6.03494 0.101987 5.85417 0.282761C5.67339 0.463535 5.57171 0.708632 5.57141 0.964285V5.15512C4.8738 5.19541 4.22446 5.33351 3.70986 5.55406C2.71932 5.97856 2.57141 6.55269 2.57141 6.85713C2.57141 7.16158 2.71932 7.73571 3.70986 8.1602ZM6.42855 0.964285C6.42855 0.935869 6.43984 0.908616 6.45993 0.888523C6.48002 0.86843 6.50728 0.857142 6.53569 0.857142H10.7143V3.32142C10.7143 3.34984 10.703 3.37709 10.6829 3.39719C10.6628 3.41728 10.6355 3.42857 10.6071 3.42857H6.42855V0.964285ZM5.57141 6.01376V6.85713H6.42855V6.01376C7.76821 6.10103 8.5714 6.58306 8.5714 6.85713C8.5714 7.15933 7.59512 7.71428 5.99998 7.71428C4.40484 7.71428 3.42855 7.15933 3.42855 6.85713C3.42855 6.58306 4.23175 6.10103 5.57141 6.01376Z" fill="#4E2E8A"/>
<path d="M21.3741 19.4845C21.5017 19.3373 21.6323 19.1813 21.7631 19.0177C22.963 17.5178 23.5713 16.1662 23.5713 15C23.5713 13.977 23.165 12.9959 22.4416 12.2726C21.7182 11.5492 20.7372 11.1428 19.7142 11.1428C18.6912 11.1428 17.7101 11.5492 16.9868 12.2726C16.2634 12.9959 15.8571 13.977 15.8571 15C15.8571 16.1662 16.4654 17.5178 17.6652 19.0178C17.7961 19.1814 17.9267 19.3374 18.0543 19.4846C16.959 19.7694 16.2856 20.3297 16.2856 21C16.2856 21.3044 16.4335 21.8785 17.4241 22.303C18.0428 22.5682 18.8561 22.7142 19.7142 22.7142C20.5722 22.7142 21.3856 22.5682 22.0043 22.303C22.9949 21.8785 23.1428 21.3044 23.1428 21C23.1428 20.3297 22.4694 19.7694 21.3741 19.4845ZM16.7142 15C16.7142 14.2043 17.0303 13.4413 17.5929 12.8786C18.1555 12.316 18.9185 12 19.7142 12C20.5098 12 21.2729 12.316 21.8355 12.8786C22.3981 13.4413 22.7142 14.2043 22.7142 15C22.7142 15.9503 22.157 17.1509 21.1022 18.4718C20.6726 19.0061 20.2089 19.5123 19.7142 19.987C19.2226 19.5154 18.7618 19.0127 18.3346 18.4821C17.2745 17.1572 16.7142 15.953 16.7142 15ZM19.7142 21.8571C18.1191 21.8571 17.1428 21.3022 17.1428 21C17.1428 20.775 17.7059 20.3835 18.7299 20.2187C19.1289 20.6275 19.4116 20.876 19.432 20.8937C19.5101 20.9621 19.6104 20.9998 19.7142 20.9998C19.818 20.9998 19.9183 20.9621 19.9964 20.8937C20.0168 20.8758 20.2995 20.6273 20.6985 20.2187C21.7225 20.3835 22.2856 20.775 22.2856 21C22.2856 21.3022 21.3093 21.8571 19.7142 21.8571Z" fill="#4E2E8A"/>
<path d="M19.7143 16.7143C20.0533 16.7143 20.3848 16.6138 20.6667 16.4254C20.9486 16.2371 21.1683 15.9693 21.2981 15.6561C21.4278 15.3428 21.4618 14.9981 21.3956 14.6656C21.3295 14.3331 21.1662 14.0276 20.9265 13.7879C20.6867 13.5481 20.3813 13.3849 20.0487 13.3187C19.7162 13.2526 19.3715 13.2865 19.0583 13.4163C18.745 13.546 18.4773 13.7657 18.2889 14.0476C18.1005 14.3296 18 14.661 18 15.0001C18.0005 15.4546 18.1813 15.8903 18.5027 16.2117C18.824 16.533 19.2598 16.7138 19.7143 16.7143ZM19.7143 14.1429C19.8838 14.1429 20.0495 14.1932 20.1905 14.2874C20.3314 14.3815 20.4413 14.5154 20.5062 14.672C20.5711 14.8287 20.588 15.001 20.555 15.1673C20.5219 15.3335 20.4402 15.4863 20.3204 15.6061C20.2005 15.726 20.0478 15.8077 19.8815 15.8407C19.7152 15.8738 19.5429 15.8568 19.3863 15.7919C19.2296 15.7271 19.0958 15.6172 19.0016 15.4763C18.9074 15.3353 18.8571 15.1696 18.8571 15.0001C18.8574 14.7728 18.9478 14.5549 19.1085 14.3943C19.2692 14.2336 19.487 14.1432 19.7143 14.1429Z" fill="#4E2E8A"/>
</svg>
